<?xml version="1.0" standalone="no"?>
<!DOCTYPE svg PUBLIC "-//W3C//DTD SVG 20010904//EN"
 "http://www.w3.org/TR/2001/REC-SVG-20010904/DTD/svg10.dtd">
<svg version="1.0" xmlns="http://www.w3.org/2000/svg"
 width="530.000000pt" height="530.000000pt" viewBox="0 0 530.000000 530.000000"
 preserveAspectRatio="xMidYMid meet">
<metadata>
Created by potrace 1.11, written by Peter Selinger 2001-2013
</metadata>
<g transform="translate(0.000000,530.000000) scale(0.100000,-0.100000)"
fill="#000000" stroke="none">
<path d="M2510 5189 c-174 -16 -427 -85 -595 -164 -99 -46 -186 -100 -177
-110 4 -5 2 -5 -5 -1 -14 8 -85 -38 -75 -49 4 -5 2 -5 -5 -2 -28 17 -356 -274
-448 -397 -17 -22 -42 -54 -58 -70 -15 -17 -25 -37 -22 -44 3 -7 1 -11 -4 -8
-7 5 -71 -74 -71 -87 0 -2 -20 -35 -45 -73 -89 -134 -250 -480 -269 -574 -2
-14 -11 -44 -20 -68 -17 -46 -48 -172 -71 -287 -63 -312 -71 -719 -19 -1045
20 -130 72 -356 93 -405 5 -11 19 -51 31 -90 26 -85 118 -304 136 -325 7 -8
13 -19 14 -25 8 -40 131 -246 143 -238 5 3 7 2 4 -4 -8 -13 27 -65 38 -56 4 5
5 3 2 -3 -7 -13 70 -120 84 -117 5 2 8 0 7 -5 -6 -15 107 -152 125 -152 4 0 5
5 1 12 -4 7 -3 8 4 4 6 -4 9 -13 6 -20 -6 -17 141 -156 263 -247 50 -38 94
-69 98 -69 3 0 22 -12 41 -26 19 -15 34 -23 34 -18 0 4 10 -2 23 -13 19 -17
36 -27 65 -35 4 -1 12 -7 19 -13 15 -16 185 -87 285 -120 178 -59 422 -91 608
-81 112 6 230 21 260 32 8 4 32 8 53 10 102 11 496 171 481 196 -4 7 -3 8 4 4
7 -4 33 5 59 21 66 38 213 145 213 155 0 4 6 8 13 8 17 0 143 117 139 131 -1
6 1 8 6 5 12 -7 104 88 95 99 -5 4 -3 5 4 2 14 -9 95 91 86 107 -3 6 -2 8 2 3
9 -7 45 20 45 34 0 5 20 35 44 66 39 53 81 117 128 198 26 44 140 274 162 325
29 70 75 210 69 210 -3 0 -1 6 5 13 28 33 98 353 123 562 17 138 17 536 0 670
-52 418 -174 794 -365 1120 -61 105 -83 135 -91 127 -5 -4 -5 -1 -1 5 4 8 -3
23 -18 38 -14 14 -23 25 -21 25 5 0 -40 59 -109 146 -115 142 -373 367 -520
451 -129 74 -363 178 -419 187 -7 1 -17 5 -23 9 -26 16 -246 56 -359 66 -134
12 -168 12 -305 0z m121 -129 c10 0 18 -3 17 -7 -3 -11 69 -150 82 -158 6 -4
10 24 10 79 l0 86 32 0 31 0 -6 -97 c-4 -54 -7 -124 -7 -155 l0 -58 -33 0
c-31 0 -51 19 -62 60 -5 19 -50 100 -56 100 -3 0 -9 -34 -11 -75 -3 -42 -7
-77 -9 -80 -3 -2 -15 -2 -27 2 -21 5 -22 10 -22 113 0 143 8 203 27 196 8 -4
23 -6 34 -6z m406 -27 c-4 -4 6 -12 23 -19 30 -13 50 -47 50 -85 0 -14 -7 -19
-30 -19 -16 0 -30 5 -30 12 0 19 -32 48 -53 48 -27 0 -65 -43 -72 -84 -9 -44
-3 -82 12 -79 7 2 10 -4 7 -11 -3 -9 3 -17 16 -21 16 -5 29 0 50 20 24 23 31
25 49 16 25 -14 26 -29 3 -57 -36 -45 -82 -55 -136 -29 -45 21 -66 62 -66 127
1 101 48 165 134 179 22 3 43 7 45 8 2 0 1 -2 -2 -6z m-597 -117 c41 -63 79
-112 85 -109 5 4 7 3 3 -2 -4 -4 -1 -19 6 -34 14 -26 13 -26 -21 -26 -26 0
-41 7 -57 27 -19 24 -25 26 -57 19 -52 -12 -59 -18 -59 -52 0 -16 -6 -31 -12
-33 -7 -2 -36 -11 -65 -20 l-52 -16 -61 39 c-34 22 -67 38 -75 35 -16 -6 -12
-39 10 -80 20 -39 19 -47 -11 -61 -24 -11 -26 -10 -51 45 -14 31 -43 95 -64
141 -22 46 -38 85 -37 87 2 1 33 16 71 33 77 35 115 39 146 14 40 -33 44 -110
7 -135 -7 -5 -6 -8 4 -8 8 0 37 -16 65 -35 61 -42 58 -47 75 133 11 121 15
134 34 142 11 5 26 9 32 9 5 1 43 -50 84 -113z m817 10 c-1 -12 -6 -26 -10
-33 -11 -18 -79 -206 -80 -221 0 -13 -44 -9 -59 6 -4 4 13 61 38 127 64 176
59 167 89 153 17 -8 24 -18 22 -32z m200 -69 c28 -26 36 -41 35 -67 0 -18 -5
-37 -10 -42 -15 -15 -52 13 -52 39 0 24 -12 35 -46 39 -36 4 -36 -22 1 -54 42
-37 55 -62 55 -104 0 -36 -22 -69 -58 -87 -29 -15 -92 1 -129 33 -23 20 -28
33 -28 69 0 55 7 64 40 49 16 -8 25 -20 25 -35 0 -26 18 -52 40 -59 19 -6 50
9 50 24 0 15 -77 97 -85 90 -3 -4 -3 2 1 12 5 13 4 17 -4 12 -7 -4 -10 -2 -8
6 3 7 7 25 10 40 16 74 101 91 163 35z m-1598 -48 c12 -20 10 -24 -15 -45 -15
-13 -30 -24 -33 -24 -3 0 -14 -7 -24 -14 -15 -12 -16 -18 -7 -35 13 -26 34
-27 68 -3 46 32 49 32 66 8 15 -24 14 -25 -28 -52 -24 -15 -43 -32 -42 -38 4
-25 28 -56 38 -50 7 4 8 2 4 -5 -4 -6 -2 -19 5 -27 10 -12 8 -19 -10 -37 -22
-22 -22 -22 -37 -2 -9 11 -20 19 -25 17 -6 -1 -8 2 -5 7 3 5 -23 53 -59 107
-36 54 -64 103 -62 109 3 10 136 105 147 105 3 0 11 -10 19 -21z m1814 -90
c20 -5 37 -15 37 -21 0 -5 6 -8 13 -5 7 3 13 -3 14 -12 1 -9 5 -28 8 -43 11
-45 -1 -76 -29 -74 -13 0 -22 4 -19 9 2 4 0 7 -5 7 -6 0 -8 9 -5 19 15 57 -62
84 -105 38 -12 -13 -19 -27 -15 -32 5 -4 3 -5 -3 -2 -19 11 -47 -58 -34 -83
14 -25 57 -37 82 -21 17 10 22 9 34 -6 22 -29 16 -43 -23 -59 -29 -13 -45 -14
-73 -5 -56 17 -84 52 -84 109 1 92 72 175 164 191 3 1 22 -4 43 -10z m-758
-109 c125 -26 113 -23 204 -61 24 -11 48 -19 53 -19 11 0 158 -86 230 -135 29
-20 98 -77 152 -128 55 -51 103 -91 108 -90 4 2 7 0 6 -5 -4 -15 23 -52 34
-46 7 4 8 3 4 -4 -4 -7 -2 -12 3 -12 6 0 11 -4 11 -10 0 -16 72 -105 82 -102
5 1 7 -2 3 -8 -3 -5 5 -25 18 -42 24 -32 76 -119 106 -176 8 -15 19 -30 25
-34 6 -4 8 -8 4 -8 -4 0 7 -30 23 -67 17 -38 46 -111 65 -163 19 -52 37 -102
41 -110 3 -8 7 -22 8 -30 1 -8 9 -42 18 -75 106 -398 96 -909 -25 -1300 -16
-55 -31 -104 -32 -110 -1 -5 -12 -32 -25 -60 -13 -27 -24 -62 -25 -77 0 -14
-3 -25 -6 -23 -3 2 -19 -24 -35 -58 -39 -80 -108 -199 -151 -260 -19 -26 -32
-52 -29 -57 3 -5 0 -12 -6 -16 -8 -5 -9 -3 -4 7 12 22 -5 2 -73 -82 -34 -42
-59 -79 -57 -83 3 -3 2 -4 -2 -1 -8 6 -138 -117 -135 -128 1 -5 -2 -6 -7 -3
-12 8 -33 -18 -23 -29 4 -5 1 -5 -5 -1 -10 6 -72 -33 -103 -64 -5 -5 -41 -26
-77 -45 -13 -7 -19 -16 -15 -21 4 -5 3 -6 -1 -2 -5 3 -45 -11 -90 -32 -304
-141 -623 -157 -921 -45 -50 19 -94 31 -100 28 -5 -3 -6 -1 -2 5 6 11 -6 16
-26 13 -5 0 -8 4 -8 10 0 6 -7 8 -16 5 -8 -3 -12 -2 -9 4 3 6 2 10 -4 10 -12
0 -139 77 -167 102 -11 10 -23 18 -27 18 -3 0 -18 11 -32 26 -14 14 -30 22
-37 18 -6 -4 -8 -3 -5 3 4 6 -13 28 -36 50 -51 49 -178 185 -192 206 -5 8 -28
41 -51 74 -22 32 -60 92 -84 133 -24 41 -47 77 -52 78 -4 2 -8 13 -8 23 0 13
-4 18 -12 13 -6 -4 -8 -3 -5 3 4 6 -11 48 -32 94 -202 434 -255 1033 -136
1527 14 56 26 110 28 120 1 9 5 22 8 27 4 6 14 35 24 65 22 73 71 191 106 263
16 31 26 57 22 57 -5 0 -3 4 3 8 6 4 23 30 39 57 28 50 110 177 132 205 7 8
30 37 52 64 22 27 37 54 34 59 -3 6 -2 7 4 4 5 -3 41 26 79 64 171 174 393
306 609 364 178 48 367 53 550 15z m-1340 -85 c31 -30 60 -55 64 -57 3 -2 26
-25 51 -51 l44 -47 -21 -22 -22 -21 -83 21 c-108 29 -116 28 -78 -8 18 -16 37
-27 43 -23 6 3 7 1 3 -5 -4 -7 5 -22 21 -36 25 -22 26 -26 13 -40 -8 -8 -20
-16 -27 -18 -6 -2 -60 45 -120 103 l-108 106 22 19 c25 21 31 21 122 -7 35
-11 66 -17 69 -14 3 3 12 -1 21 -7 9 -7 -6 11 -33 40 -27 28 -54 48 -59 45 -6
-3 -7 -1 -3 5 3 6 2 13 -4 17 -5 3 -10 10 -10 15 0 8 28 40 35 40 1 0 28 -25
60 -55z m2317 -15 c11 0 32 -13 48 -29 16 -16 32 -26 35 -22 4 3 6 2 4 -4 -1
-5 1 -26 5 -46 5 -24 3 -47 -7 -72 -9 -19 -12 -38 -9 -42 4 -4 0 -5 -8 -3 -9
2 -14 -4 -13 -15 0 -10 -1 -16 -4 -13 -3 3 -23 -6 -44 -20 -21 -13 -46 -24
-54 -24 -9 0 -14 -4 -10 -10 10 -16 -99 21 -113 38 -7 9 -17 16 -21 15 -9 -2
-14 30 -13 82 0 56 7 90 18 90 5 0 25 15 44 33 35 33 84 54 108 46 8 -2 23 -4
34 -4z m-2502 -264 c25 -8 73 -22 108 -31 55 -16 62 -21 56 -39 -8 -24 -24
-37 -39 -32 -50 17 -53 17 -85 -24 l-33 -41 22 -30 c22 -29 22 -31 5 -56 l-17
-27 -24 30 c-36 44 -163 233 -163 242 0 4 7 17 15 29 15 21 17 21 63 7 26 -8
67 -21 92 -28z m2775 -76 c4 -6 10 -8 15 -5 5 3 11 -4 15 -15 4 -11 11 -18 16
-14 5 3 9 2 8 -3 -1 -4 1 -20 5 -36 11 -38 -1 -95 -23 -107 -26 -13 -59 33
-41 56 16 18 5 60 -17 68 -30 12 -37 -9 -24 -69 20 -89 -15 -145 -91 -145 -42
0 -71 20 -92 64 -23 49 -20 90 8 123 l25 28 21 -21 c20 -20 21 -22 4 -51 -17
-29 -17 -32 -1 -57 20 -30 53 -34 61 -8 3 9 1 33 -4 52 -17 59 -12 89 19 121
30 29 83 40 96 19z m-2965 -123 c0 -22 -24 -46 -50 -51 -16 -2 -24 -10 -24
-20 1 -9 -2 -13 -7 -11 -4 3 -7 -4 -6 -15 2 -35 25 -30 74 15 61 57 104 61
153 15 29 -27 32 -35 27 -72 -10 -77 -66 -126 -131 -114 -30 6 -36 11 -31 24
4 9 8 22 8 29 0 6 14 11 30 11 20 -1 37 7 49 22 23 29 23 47 -2 60 -17 9 -27
4 -66 -34 -41 -39 -52 -44 -86 -42 -89 7 -114 101 -46 174 25 25 108 33 108 9z
m3105 -139 c15 -7 35 -29 46 -50 41 -79 15 -148 -72 -192 -94 -46 -172 -29
-210 46 -37 72 -7 141 81 188 40 22 117 26 155 8z m-3059 -267 c-1 -16 -3 -29
-6 -29 -3 1 -12 -2 -20 -5 -8 -3 -26 -7 -39 -9 -33 -4 -62 -78 -41 -103 7 -9
19 -14 26 -11 21 8 23 -6 5 -47 l-16 -38 -31 28 c-17 16 -64 53 -104 83 -125
95 -121 90 -105 128 l14 32 159 0 159 0 -1 -29z m3191 -10 c12 -33 8 -36 -84
-62 -24 -7 -40 -16 -36 -22 3 -6 1 -7 -6 -3 -11 7 -79 -10 -94 -24 -4 -3 1
-28 13 -54 28 -66 26 -83 -7 -82 -23 1 -29 9 -49 65 -34 94 -39 121 -20 121 8
0 27 5 43 12 15 6 30 12 33 13 3 0 37 12 75 25 39 13 76 25 83 26 8 1 16 5 20
8 11 11 18 6 29 -23z m-3421 -208 c81 -21 146 -43 149 -51 2 -7 0 -10 -5 -7
-6 3 -10 -3 -10 -14 0 -27 -3 -27 -140 9 -102 27 -141 37 -161 39 -10 2 3 61
13 61 6 0 75 -17 154 -37z m3329 -69 c71 -8 139 -17 150 -19 11 -2 23 -4 26
-4 4 -1 9 -15 11 -31 4 -26 0 -34 -29 -51 -18 -11 -30 -26 -27 -31 4 -7 2 -8
-5 -4 -11 7 -68 -26 -83 -48 -4 -6 -13 -11 -20 -11 -7 0 -32 -13 -55 -28 -45
-31 -58 -30 -65 6 -5 24 5 39 35 50 18 7 21 33 11 86 -5 25 -11 31 -33 31 -14
0 -31 4 -38 8 -14 9 -29 62 -17 62 5 0 67 -7 139 -16z m-3435 -38 c0 -8 3 -21
6 -30 4 -10 -5 -20 -25 -31 -37 -19 -42 -62 -11 -90 29 -27 130 -33 153 -10
24 23 21 61 -5 79 -27 19 -31 54 -8 66 13 7 27 1 55 -23 34 -29 38 -37 37 -80
-2 -59 -22 -91 -75 -112 -68 -27 -174 -2 -216 51 -31 39 -29 113 4 153 14 16
36 32 48 34 12 2 25 5 30 6 4 0 7 -5 7 -13z m3665 -244 c0 -21 -12 -34 -65
-70 -36 -24 -73 -52 -83 -61 -17 -17 -15 -17 35 -10 29 4 70 8 91 8 34 1 37
-1 37 -27 l0 -29 -127 -12 c-185 -16 -183 -16 -183 17 0 25 12 37 85 87 47 32
85 59 85 60 0 1 -37 -3 -81 -7 -90 -10 -112 -6 -103 17 3 8 1 15 -5 15 -9 0
-9 3 0 13 7 7 45 13 93 15 45 1 110 6 146 10 36 5 67 6 70 5 2 -2 4 -16 5 -31z
m-3645 -47 c74 -8 139 -15 143 -15 5 0 7 -14 5 -32 -3 -29 -9 -34 -78 -62 -41
-17 -84 -36 -95 -43 -18 -11 -17 -12 15 -13 19 0 59 -3 88 -6 49 -6 52 -8 52
-35 0 -17 -5 -29 -12 -29 -45 1 -291 30 -296 35 -3 3 -2 17 4 31 7 19 31 35
104 67 l95 42 -92 9 -93 8 0 29 c0 17 5 29 13 29 6 0 73 -7 147 -15z m3595
-224 c60 -27 70 -44 71 -122 1 -38 -2 -67 -6 -64 -4 3 -10 -2 -13 -10 -16 -39
-116 -65 -194 -49 -96 19 -134 151 -63 219 47 45 138 57 205 26z m-3465 -88
l0 -36 -97 6 c-54 4 -124 7 -155 7 -58 0 -58 0 -58 30 l0 31 155 -2 155 -1 0
-35z m-232 -84 c12 -5 26 -8 30 -7 4 1 30 -5 57 -14 28 -9 71 -21 97 -28 33
-9 48 -18 52 -34 10 -37 7 -44 -29 -56 -19 -6 -33 -16 -30 -21 4 -5 0 -6 -8
-3 -8 3 -61 -13 -118 -35 -57 -23 -107 -41 -111 -41 -5 0 -8 15 -8 33 0 32 1
32 95 65 52 19 93 38 90 42 -3 5 -48 18 -100 31 l-95 21 0 34 c0 32 2 34 28
28 15 -4 37 -11 50 -15z m3672 -254 c46 -24 70 -62 70 -112 0 -94 -56 -138
-163 -131 -76 5 -111 24 -142 81 -17 32 -18 41 -7 84 13 49 48 88 87 97 34 7
125 -4 155 -19z m-3465 -17 c15 -7 35 -29 46 -50 51 -100 -5 -187 -134 -204
-55 -8 -110 9 -137 43 -23 29 -35 83 -26 118 7 28 64 97 75 91 4 -3 13 -1 21
5 21 13 124 11 155 -3z m95 -289 c0 -14 -9 -34 -20 -44 -11 -10 -17 -23 -13
-29 3 -6 2 -8 -2 -3 -13 12 -55 -34 -55 -61 0 -20 4 -23 23 -18 12 3 40 9 63
12 39 6 42 5 46 -20 5 -25 2 -27 -51 -42 -31 -8 -63 -18 -71 -21 -8 -4 -18 -6
-21 -5 -3 0 -38 -7 -77 -18 l-72 -18 -9 36 c-34 119 -35 141 -14 170 28 38 85
51 124 28 l29 -17 52 50 c55 51 68 51 68 0z m3259 6 c74 -19 136 -37 138 -39
2 -2 -6 -39 -18 -82 -11 -44 -23 -84 -24 -90 -2 -7 -15 -9 -29 -7 -30 6 -32
20 -12 86 l14 46 -31 10 c-16 6 -31 11 -32 11 -1 0 -7 -25 -14 -56 -12 -53
-14 -55 -39 -49 -15 4 -28 8 -29 9 -2 2 4 24 12 51 8 27 12 51 10 55 -2 4 -29
13 -60 20 -54 13 -61 21 -49 54 8 21 9 21 163 -19z m-153 -205 c26 -12 54 -18
63 -15 8 3 12 3 8 -1 -4 -4 25 -20 65 -35 39 -16 75 -32 80 -37 5 -5 2 -25 -7
-46 -15 -36 -18 -37 -53 -32 -20 3 -61 8 -91 11 l-54 5 56 -41 c32 -22 62 -37
69 -33 6 4 8 3 4 -4 -3 -6 -1 -14 5 -18 13 -7 5 -60 -12 -80 -7 -9 -16 -10
-27 -4 -19 11 -199 77 -222 82 -25 5 -39 25 -33 47 7 27 20 27 96 -4 l62 -26
-33 31 c-34 30 -59 40 -46 18 4 -8 3 -10 -2 -5 -5 5 -9 13 -9 17 0 5 -8 15
-18 22 -14 10 -17 21 -12 41 7 25 27 34 60 27 6 -1 26 -4 45 -6 19 -2 49 -6
65 -9 25 -4 23 -2 -10 11 -22 9 -46 16 -52 17 -7 0 -13 4 -13 9 0 4 -4 8 -9 8
-5 0 -21 4 -35 10 -23 8 -25 12 -14 35 14 30 14 30 74 5z m-3137 -122 c11 -12
25 -36 31 -54 l11 -33 56 20 c67 23 60 22 60 7 0 -7 4 -20 7 -29 5 -12 -14
-24 -93 -55 -54 -21 -97 -41 -96 -44 2 -3 -4 -6 -13 -7 -9 0 -31 -4 -48 -8
l-32 -7 -30 77 c-28 74 -29 79 -13 106 20 35 45 47 98 48 31 1 48 -5 62 -21z
m2868 -504 c8 3 12 2 8 -3 -6 -11 65 -72 76 -65 4 2 11 -1 15 -7 4 -8 3 -9 -5
-5 -6 4 -14 0 -18 -11 -4 -10 -9 -20 -13 -23 -3 -3 -30 -38 -59 -77 -30 -40
-57 -73 -61 -73 -4 0 -15 9 -25 20 -10 12 -25 18 -32 15 -8 -2 -12 -1 -8 4 5
9 -34 46 -57 53 -12 4 30 75 71 121 14 15 22 27 18 27 -4 0 5 13 20 30 26 30
26 30 41 9 8 -11 20 -18 29 -15z m-2425 -101 c33 -46 59 -85 57 -87 -50 -34
-88 -70 -83 -78 5 -7 2 -8 -6 -3 -8 5 -18 1 -26 -10 -8 -10 -15 -17 -17 -14
-2 2 -18 23 -34 46 -17 23 -33 40 -37 38 -3 -3 -4 -2 -1 1 2 4 -12 29 -32 56
l-36 49 34 29 c19 15 47 39 64 53 36 32 36 31 117 -80z m2210 -240 c78 -42
147 -76 154 -76 17 0 11 -27 -10 -42 -14 -11 -24 -9 -61 11 -36 21 -45 22 -56
11 -8 -7 -26 -21 -42 -31 -35 -24 -41 -51 -23 -103 14 -39 13 -42 -8 -62 -19
-18 -22 -19 -23 -3 -1 9 -27 88 -58 175 -55 152 -56 159 -40 178 10 10 20 19
22 19 2 0 67 -34 145 -77z m-1901 1 c11 -13 10 -31 -5 -107 -23 -117 -57 -261
-62 -266 -2 -2 -12 4 -23 13 -17 16 -18 22 -6 71 l12 54 -53 36 -54 35 -39
-26 c-27 -17 -47 -24 -60 -19 -12 3 -21 10 -21 14 0 9 68 70 72 65 2 -1 48 31
102 72 55 41 105 74 111 74 7 0 18 -7 26 -16z m1679 -94 c5 -8 28 -49 51 -90
23 -41 51 -88 62 -104 20 -28 20 -29 2 -42 -26 -19 -25 -19 -116 26 -44 21
-88 41 -97 42 -9 2 -19 5 -22 8 -3 3 -16 11 -30 19 -23 13 -24 13 -10 -3 8
-10 15 -24 16 -32 1 -7 23 -48 48 -90 37 -60 44 -79 35 -90 -24 -29 -27 -25
-139 170 -59 103 -62 110 -44 123 22 16 36 17 52 1 7 -7 12 -9 12 -4 0 4 12
-1 28 -12 45 -31 180 -91 177 -79 -6 29 -18 46 -28 40 -6 -3 -7 -1 -3 6 7 11
-59 133 -76 139 -5 2 1 14 14 26 l23 21 18 -30 c10 -16 22 -37 27 -45z m-1388
-103 c17 -22 30 -87 17 -87 -4 0 -9 -9 -12 -20 -5 -20 -30 -34 -79 -44 -24 -6
-26 -9 -18 -38 13 -52 21 -148 12 -148 -4 0 -17 7 -28 15 -16 11 -22 29 -28
82 -9 94 -13 105 -49 131 -30 21 -33 21 -45 5 -7 -10 -23 -39 -34 -65 -11 -27
-22 -48 -24 -48 -2 0 -13 5 -26 10 l-23 11 70 142 c38 78 73 147 78 154 9 14
163 -67 189 -100z m1118 11 c0 -6 8 -17 18 -24 10 -8 12 -13 5 -14 -9 0 -8
-10 5 -37 9 -21 20 -40 25 -41 4 -2 5 -7 2 -12 -3 -5 8 -43 25 -86 16 -43 30
-82 30 -86 0 -4 -9 -12 -20 -18 -17 -9 -21 -7 -26 7 -9 26 -74 193 -87 226 -7
15 -17 25 -23 23 -7 -3 -31 -10 -54 -17 -35 -11 -40 -16 -35 -33 3 -12 8 -32
11 -46 10 -48 45 -195 50 -212 4 -14 0 -18 -20 -18 -21 0 -27 7 -35 38 -6 20
-22 82 -36 136 -14 55 -27 102 -30 104 -2 2 -9 0 -16 -4 -7 -4 -26 -9 -43 -11
-16 -2 -30 -4 -31 -6 -2 -2 12 -181 20 -254 l5 -53 -29 0 c-30 0 -37 7 -136
144 -68 94 -68 94 -60 -24 3 -58 8 -112 11 -121 3 -12 -3 -18 -21 -21 -14 -3
-25 -1 -26 6 0 6 -6 72 -12 146 l-12 135 -75 8 c-41 4 -83 6 -92 3 -9 -2 -19
1 -21 8 -2 6 -7 -11 -11 -37 -4 -27 -6 -51 -3 -53 2 -2 39 -8 81 -14 91 -11
99 -15 87 -39 -8 -15 -18 -16 -68 -10 -117 15 -113 16 -113 -45 l0 -53 73 -7
c102 -10 117 -15 117 -38 0 -20 -4 -20 -78 -14 -43 3 -100 9 -126 12 l-47 7 5
51 c3 28 8 76 11 106 14 149 18 185 20 188 1 2 40 -2 86 -7 114 -14 150 -16
176 -7 17 6 27 -1 54 -38 27 -39 35 -44 48 -33 14 10 14 10 4 -4 -11 -13 -7
-23 19 -57 18 -23 36 -42 41 -42 4 0 6 -4 3 -9 -3 -4 3 -16 14 -26 18 -16 19
-16 17 3 0 11 -6 18 -12 14 -5 -3 -5 1 2 9 8 10 9 39 2 103 -9 87 -7 100 12
102 5 1 10 2 12 4 1 1 9 3 18 5 8 1 53 14 100 28 46 14 96 28 112 31 15 4 27
11 27 17 0 6 -5 7 -12 3 -6 -4 -9 -3 -5 2 8 13 67 15 67 2z m-889 -74 c16 -8
35 -12 41 -8 7 4 8 3 4 -5 -4 -6 -2 -18 4 -26 7 -8 15 -30 20 -49 6 -29 5 -35
-12 -39 -15 -4 -22 3 -35 34 -39 100 -169 87 -201 -19 -26 -85 -1 -153 59
-167 78 -18 100 -12 113 32 6 18 1 23 -36 36 -33 11 -42 18 -40 33 2 10 5 20
7 22 2 2 34 -6 73 -17 l69 -21 -21 -62 c-20 -57 -25 -64 -60 -76 -24 -7 -57
-10 -87 -6 -40 5 -56 14 -92 51 -41 41 -44 48 -46 103 -6 158 114 250 240 184z"/>
<path d="M2351 4892 c-1 -48 0 -49 24 -44 14 2 25 9 25 14 0 5 -4 6 -10 3 -5
-3 -8 0 -5 7 3 7 -3 26 -13 41 l-19 28 -2 -49z"/>
<path d="M2040 4865 c-27 -15 -35 -49 -15 -65 19 -16 85 13 85 37 0 39 -29 51
-70 28z"/>
<path d="M2490 3984 c-107 -22 -227 -73 -212 -89 4 -5 2 -5 -5 -1 -20 11 -119
-46 -198 -115 -53 -46 -126 -125 -125 -134 0 -3 -4 -11 -10 -18 -43 -50 -50
-62 -45 -74 2 -8 0 -11 -5 -8 -6 3 -10 1 -10 -5 0 -7 -9 -25 -20 -40 -17 -24
-44 -87 -54 -125 -2 -5 -9 -23 -15 -40 -20 -47 -40 -152 -47 -242 -7 -77 -8
-83 -34 -91 -26 -10 -27 -9 -26 30 1 65 -55 107 -68 52 -5 -17 -1 -35 9 -50
15 -23 14 -25 -10 -34 -15 -6 -31 -10 -36 -10 -5 0 -9 -4 -9 -10 0 -13 6 -13
29 2 24 15 51 4 51 -22 0 -14 -7 -20 -22 -20 -13 0 -29 -4 -36 -9 -8 -5 3 -7
29 -7 35 1 42 -2 44 -19 1 -18 51 -231 61 -264 3 -8 6 -12 9 -10 2 3 -9 63
-26 134 -16 71 -28 132 -27 136 10 29 37 -36 99 -237 96 -313 110 -364 104
-373 -2 -5 -18 -11 -35 -13 -23 -4 -30 -1 -30 12 0 9 -3 20 -7 24 -4 3 -7 14
-8 24 -4 43 -58 268 -67 277 -6 6 -7 0 -3 -17 6 -21 4 -28 -8 -28 -27 0 -86
-79 -93 -125 -5 -35 -1 -52 26 -104 18 -33 29 -68 26 -77 -4 -11 -1 -14 12
-10 40 12 80 -55 75 -123 -4 -46 -23 -70 -55 -71 -19 0 -26 -20 -8 -20 6 0 10
-40 10 -101 0 -63 4 -98 10 -94 5 3 7 0 5 -8 -8 -18 53 -80 71 -73 8 3 13 2
10 -3 -8 -13 11 -18 79 -20 79 -3 144 18 210 68 45 34 55 38 65 26 7 -8 16
-13 20 -10 4 3 11 -6 14 -20 3 -13 19 -31 34 -39 15 -9 23 -15 19 -16 -14 0
118 -153 224 -260 103 -104 225 -133 320 -77 47 28 127 97 113 97 -4 0 0 6 9
12 9 7 43 49 76 93 34 44 78 98 98 120 21 22 36 41 35 43 -6 6 37 40 44 34 4
-4 4 -1 0 6 -4 6 -4 12 1 12 4 0 27 18 51 40 65 60 102 76 171 72 22 -2 23 -5
17 -44 -3 -24 -8 -75 -12 -114 l-6 -72 38 -4 c22 -3 42 -1 45 5 4 5 10 50 14
99 6 85 8 89 24 74 10 -9 21 -13 26 -9 4 5 5 3 1 -4 -3 -6 -2 -15 4 -18 14 -9
62 46 55 63 -3 7 0 10 5 7 6 -3 10 -2 10 3 0 9 -31 26 -34 20 -1 -2 -8 -15
-16 -31 l-13 -27 -24 22 c-26 24 -34 80 -8 58 8 -6 19 -9 25 -5 6 4 9 3 8 -2
-2 -4 1 -9 7 -11 25 -9 12 19 -19 41 -20 13 -34 26 -32 28 2 2 6 38 9 79 7 94
65 661 73 714 l6 38 77 -6 c42 -4 108 -10 146 -15 39 -5 73 -7 76 -5 12 7 9
84 -4 86 -6 0 -23 2 -37 4 -259 28 -250 26 -250 48 0 12 7 80 15 151 8 72 15
133 15 137 0 4 -18 6 -40 6 -34 0 -40 -4 -40 -22 -1 -29 -15 -3 -25 44 -19 97
-102 269 -170 353 -51 64 -152 167 -163 167 -6 0 -16 9 -22 20 -6 11 -14 19
-18 17 -4 -1 -24 11 -44 27 -49 37 -199 101 -283 121 -82 19 -256 19 -345 -1z
m255 -54 c50 -6 114 -17 142 -25 29 -9 56 -15 59 -14 4 0 10 -3 13 -8 3 -4 33
-21 66 -38 33 -16 67 -36 75 -42 8 -7 18 -13 22 -14 4 0 23 -14 42 -32 19 -18
45 -41 58 -52 13 -11 35 -34 50 -52 14 -18 29 -29 33 -25 4 4 5 3 4 -3 -2 -5
14 -37 35 -69 103 -158 154 -311 163 -483 6 -118 6 -118 -37 -114 -8 1 -66 7
-128 14 -62 7 -115 11 -117 8 -3 -2 -5 -18 -5 -35 l0 -31 -20 30 c-11 17 -16
33 -10 40 4 5 11 48 14 94 3 46 12 96 19 111 18 34 1 106 -44 191 -40 75 -197
219 -277 255 -171 77 -349 67 -532 -27 -132 -68 -211 -154 -273 -295 -28 -65
-33 -93 -18 -122 23 -46 30 -73 34 -139 2 -40 0 -70 -4 -67 -5 3 -9 -2 -9 -10
0 -9 -4 -16 -10 -16 -14 0 -12 -53 3 -69 10 -11 10 -13 0 -7 -7 4 -13 4 -13 1
0 -16 46 -113 67 -142 21 -30 48 -87 41 -89 -2 0 4 -7 12 -15 23 -23 52 -31
61 -17 12 20 18 6 24 -58 l6 -61 -66 -18 c-36 -9 -65 -21 -65 -27 0 -5 -5 -6
-12 -2 -8 5 -9 2 -5 -9 3 -9 1 -19 -5 -23 -7 -4 -8 -3 -4 4 16 26 -24 10 -48
-19 -25 -29 -46 -32 -46 -5 0 8 -7 19 -15 26 -8 7 -20 30 -26 53 -6 24 -28 58
-54 85 -24 24 -51 65 -60 91 -69 194 -92 339 -75 477 17 136 67 275 132 372
25 36 28 46 17 60 -11 14 -11 15 0 5 13 -11 14 -11 121 113 14 16 43 43 64 59
21 17 44 35 50 41 12 12 189 108 194 105 4 -2 56 11 67 18 12 7 31 10 115 20
36 5 70 9 75 10 6 0 51 -4 100 -9z m45 -293 c26 -7 53 -18 110 -45 30 -15 60
-25 65 -23 6 1 7 -1 3 -4 -4 -4 3 -16 15 -26 12 -10 20 -19 17 -19 -33 -7
-217 -15 -335 -15 -157 0 -243 9 -313 31 -21 6 3 26 73 59 98 46 141 55 250
50 55 -2 107 -6 115 -8z m-500 -136 c0 -5 -11 -23 -25 -39 -27 -32 -31 -42
-16 -42 5 0 18 16 30 35 11 19 28 35 36 35 14 0 13 -4 -4 -26 -30 -38 -44 -96
-31 -129 15 -41 12 -50 -11 -29 -17 15 -20 27 -16 61 3 33 1 43 -10 43 -11 0
-13 -14 -11 -62 3 -56 1 -63 -16 -63 -14 0 -20 8 -23 30 -6 45 -14 45 -12 0 3
-46 -17 -84 -42 -82 -22 1 -19 49 6 98 16 31 133 179 141 179 2 0 4 -4 4 -9z
m85 -18 c-23 -55 -29 -94 -16 -114 10 -17 10 -20 -1 -13 -11 6 -11 5 0 -8 10
-12 10 -18 1 -23 -6 -4 -15 -1 -20 6 -7 11 -9 10 -9 -3 0 -26 -17 -22 -24 5
-9 34 -7 63 6 94 6 15 12 32 12 36 1 11 36 37 49 37 5 0 6 -8 2 -17z m39 -69
c-2 -88 -8 -109 -25 -84 -18 26 4 170 25 170 1 0 1 -39 0 -86z m622 19 c15
-25 29 -51 30 -58 1 -7 5 -25 8 -41 3 -16 2 -35 -3 -43 -11 -18 -41 -7 -41 15
0 11 -5 14 -16 10 -14 -5 -15 -4 -5 8 16 20 6 68 -25 123 -30 52 -30 55 0 42
13 -6 36 -31 52 -56z m73 -4 c12 -20 24 -64 27 -98 7 -60 6 -61 -18 -61 -21 0
-24 5 -27 43 -2 23 -4 51 -6 62 -1 11 -3 25 -4 32 0 6 -7 18 -14 25 -7 7 -18
26 -25 41 l-12 28 29 -17 c16 -9 39 -34 50 -55z m-654 -20 c0 -42 -3 -75 -7
-73 -20 13 -33 117 -18 150 0 0 6 1 13 1 9 0 13 -21 12 -78z m521 -1 c13 -26
24 -54 24 -63 0 -21 -19 -19 -27 3 -6 17 -38 91 -56 127 l-10 20 23 -20 c12
-11 33 -41 46 -67z m-484 47 c-2 -14 3 -42 12 -64 14 -37 14 -40 -3 -38 -10 0
-18 6 -19 12 0 5 -4 27 -8 47 -4 25 -2 43 6 53 17 20 18 19 12 -10z m84 3 c5
-13 7 -27 6 -32 -2 -4 7 -24 18 -43 27 -45 21 -51 -14 -14 -17 18 -30 44 -33
70 -6 45 10 57 23 19z m101 -92 c14 -23 12 -29 -8 -21 -14 5 -59 105 -59 128
1 6 13 -10 28 -37 15 -27 32 -58 39 -70z m149 95 c25 -25 49 -54 53 -66 2 -5
7 -20 12 -33 27 -69 -9 -50 -44 24 -16 32 -36 67 -44 77 -21 23 -2 22 23 -2z
m-296 -23 c0 -11 9 -36 21 -54 13 -22 16 -32 7 -29 -25 10 -65 95 -51 109 10
10 23 -5 23 -26z m170 -15 c6 -7 8 -13 5 -13 -3 0 1 -10 9 -22 20 -28 21 -49
1 -42 -8 4 -15 12 -15 20 0 8 -5 14 -12 14 -6 0 -9 3 -6 6 4 3 0 21 -8 39 -18
43 -17 56 1 30 8 -11 19 -26 25 -32z m97 12 c30 -38 41 -102 17 -102 -8 0 -14
10 -14 22 0 30 -28 95 -40 95 -6 0 -10 5 -10 10 0 20 20 9 47 -25z m127 -17
c30 -59 34 -98 11 -98 -17 0 -21 8 -30 55 -9 45 -10 48 -23 73 -11 18 -10 22
2 22 8 0 26 -23 40 -52z m-178 -9 c16 -33 18 -49 4 -49 -5 0 -10 6 -10 14 0 8
-10 32 -22 53 -18 31 -19 35 -4 24 9 -8 24 -27 32 -42z m424 -48 c0 -9 6 -25
13 -36 7 -11 14 -39 16 -62 2 -34 -1 -43 -13 -43 -22 0 -32 30 -39 113 -6 60
-5 67 8 57 8 -7 15 -20 15 -29z m-245 -64 c61 -12 112 -23 115 -25 3 -2 6 -52
6 -110 1 -59 6 -138 10 -177 5 -38 6 -108 2 -155 -8 -104 -9 -110 -19 -110 -7
0 -24 -49 -20 -63 1 -5 -3 -6 -8 -3 -4 3 -14 -16 -20 -42 -18 -71 -74 -222
-82 -222 -4 0 -10 13 -14 29 -7 34 -68 105 -79 94 -4 -5 -6 -2 -4 6 3 14 -65
61 -90 61 -21 0 -26 -29 -8 -49 16 -17 14 -18 -27 -24 -24 -3 -53 -3 -66 0
l-22 6 21 20 c19 17 20 21 8 34 -15 14 -53 6 -81 -17 -6 -6 -23 -19 -37 -29
-15 -11 -37 -40 -50 -65 -22 -44 -24 -45 -37 -26 -19 26 -63 147 -63 171 0 5
-6 7 -12 3 -7 -4 -10 -4 -6 0 3 4 -9 40 -27 79 -42 90 -56 169 -55 300 0 56 0
127 1 157 0 30 2 64 4 75 2 11 4 23 4 27 2 19 66 37 181 52 69 9 136 18 150
19 72 10 226 3 325 -16z m-677 -79 c-2 -27 -12 -52 -25 -67 -23 -26 -22 -41 3
-41 11 0 15 -11 14 -37 0 -21 2 -52 6 -69 4 -23 2 -33 -10 -37 -10 -4 -16 -1
-16 8 0 13 -38 41 -51 38 -13 -4 -30 75 -27 127 3 51 6 56 46 87 24 18 48 33
54 33 5 0 8 -18 6 -42z m924 -35 c12 -11 18 -48 7 -48 -1 0 -2 -31 -3 -68 -1
-65 -15 -95 -38 -81 -4 3 -8 0 -8 -6 0 -6 -5 -8 -11 -5 -6 4 -13 -2 -16 -14
-6 -25 -23 -28 -23 -3 0 9 -3 62 -7 118 -5 98 -5 102 18 118 25 17 53 13 81
-11z m-1432 -195 c2 -69 42 -239 75 -319 16 -40 22 -66 16 -72 -7 -7 -14 -1
-20 14 -8 19 -91 277 -96 299 -1 3 -5 20 -9 39 -6 24 -4 36 5 42 20 12 29 11
29 -3z m454 -23 c3 3 4 2 1 -2 -3 -3 3 -16 14 -27 10 -12 22 -43 25 -71 14
-110 17 -131 26 -165 5 -19 6 -37 1 -40 -4 -3 -10 -11 -12 -19 -4 -11 -8 -11
-22 3 -9 9 -14 23 -10 31 6 17 -15 48 -27 40 -4 -2 -24 31 -44 74 -30 63 -37
89 -35 129 2 30 7 50 13 49 6 -1 10 4 8 11 -2 10 5 9 27 -2 15 -8 31 -13 35
-11z m987 -42 c33 -40 -28 -232 -93 -293 -32 -30 -42 -11 -24 49 8 28 15 52
15 54 0 1 5 16 11 32 6 17 16 55 21 85 17 98 17 99 39 93 10 -3 25 -12 31 -20z
m244 -49 c11 -1 31 -3 44 -3 22 -1 23 -4 18 -43 -13 -92 -90 -280 -142 -345
-5 -7 -23 -30 -40 -52 -16 -22 -37 -40 -46 -41 -18 0 -42 23 -33 33 3 3 -13
18 -37 33 -37 23 -49 26 -99 21 l-56 -6 2 42 c2 23 3 53 3 66 1 20 3 22 17 10
14 -12 20 -9 46 21 29 35 92 150 83 150 -3 0 1 12 8 28 8 15 17 44 21 66 l7
38 92 -7 c51 -4 101 -9 112 -11z m45 -465 c-11 -96 -20 -189 -20 -206 0 -18
-3 -33 -6 -33 -17 0 -42 45 -50 88 -3 19 -53 82 -65 82 -16 0 -10 14 27 55 19
22 56 74 82 117 26 42 48 75 49 74 2 -2 -6 -81 -17 -177z m-891 66 c13 2 37
-2 55 -9 23 -9 38 -10 58 -2 56 24 157 -6 168 -49 1 -5 6 -20 11 -33 5 -13 9
-24 9 -26 0 -1 -13 -18 -30 -36 -16 -18 -30 -30 -30 -26 0 5 -6 4 -13 -3 -25
-20 -147 -42 -196 -35 -118 17 -184 100 -131 166 10 14 16 29 12 33 -4 5 -1 5
6 1 6 -4 12 -2 12 3 0 6 7 11 16 11 9 0 12 5 8 13 -6 9 -5 9 7 0 9 -7 26 -11
38 -8z m-251 -97 l31 -82 -22 -50 -21 -50 -57 64 c-50 54 -61 62 -83 56 -33
-8 -33 -21 2 -42 79 -49 112 -77 215 -181 147 -149 191 -177 277 -180 95 -3
133 20 278 165 67 68 122 128 122 133 0 6 4 8 9 5 5 -3 14 1 20 8 9 11 9 16 1
21 -7 4 -27 -7 -45 -25 -28 -28 -37 -31 -49 -21 -27 22 -27 48 -2 104 14 30
28 74 31 97 7 56 10 60 48 55 56 -6 68 -11 104 -40 l36 -28 -23 -19 c-12 -10
-31 -18 -41 -18 -10 0 -19 -4 -19 -10 0 -5 10 -10 23 -9 37 2 72 15 70 27 -5
20 30 0 68 -39 20 -21 39 -35 42 -33 3 3 8 -4 12 -15 3 -12 9 -19 13 -17 4 2
8 -6 8 -17 3 -41 13 -69 40 -104 19 -26 24 -40 18 -54 -9 -19 -10 -19 -46 1
-21 11 -38 18 -38 15 0 -3 -11 2 -25 11 -31 20 -172 34 -161 15 4 -6 16 -11
27 -11 10 0 19 -4 19 -10 0 -5 -6 -10 -14 -10 -8 0 -28 -13 -45 -29 -17 -16
-31 -27 -31 -25 0 14 -159 -110 -199 -154 -13 -15 -20 -20 -15 -12 9 17 -36
-17 -49 -37 -4 -7 -15 -13 -22 -13 -8 0 -15 -4 -15 -9 0 -5 -21 -19 -47 -31
-58 -27 -153 -34 -194 -13 -29 15 -69 25 -69 18 0 -3 14 -11 30 -20 17 -9 30
-13 30 -9 0 4 7 1 15 -6 22 -18 112 -20 160 -3 95 33 203 105 320 214 102 95
149 121 216 121 69 -1 94 -17 40 -26 -62 -10 -137 -53 -192 -109 -27 -28 -49
-54 -49 -58 0 -5 -8 -16 -18 -26 -10 -10 -38 -43 -62 -73 -25 -30 -50 -59 -58
-63 -7 -5 -9 -13 -6 -19 4 -6 3 -8 -3 -5 -6 4 -18 -2 -28 -13 -10 -11 -40 -34
-67 -51 -45 -29 -53 -31 -106 -25 -31 4 -65 7 -74 8 -9 1 -15 5 -13 9 2 3 -14
16 -35 28 -22 12 -40 27 -40 32 0 6 -3 8 -8 6 -4 -3 -21 6 -37 20 -17 14 -23
22 -15 18 8 -4 -27 34 -77 86 -69 69 -95 91 -104 82 -14 -14 29 -76 49 -68 7
2 11 1 7 -4 -3 -5 14 -29 37 -53 174 -178 314 -238 423 -181 39 21 149 133
145 148 -1 4 2 11 7 14 20 15 107 113 94 106 -9 -5 -12 -4 -7 3 4 7 13 12 19
12 15 0 83 80 79 93 -1 5 2 6 7 3 5 -4 26 5 46 19 44 29 91 40 146 32 49 -6
53 -10 44 -37 -5 -14 -12 -19 -23 -15 -33 12 -101 -7 -136 -39 -19 -17 -57
-51 -85 -75 -27 -24 -49 -49 -48 -55 1 -5 -3 -10 -10 -11 -7 0 -24 -14 -39
-32 -14 -18 -49 -56 -76 -85 -27 -29 -64 -70 -81 -90 -111 -128 -152 -158
-219 -158 -18 0 -50 9 -71 20 -20 11 -37 17 -37 13 0 -5 -4 -3 -8 2 -10 14
-79 65 -89 65 -4 0 -23 16 -42 35 -19 19 -39 31 -45 28 -6 -3 -8 -3 -4 2 4 4
-18 35 -50 68 -31 34 -69 73 -84 89 -14 15 -25 28 -22 28 2 0 -10 15 -27 33
-50 52 -60 71 -51 97 l9 24 24 -29 c61 -72 140 -157 218 -232 71 -68 88 -80
100 -70 12 10 13 9 7 -1 -8 -14 11 -45 24 -37 4 2 16 -5 26 -16 54 -60 164
-80 225 -41 38 24 32 27 -21 12 -46 -14 -120 4 -175 41 -24 16 -48 29 -54 29
-6 0 -11 4 -11 8 0 5 -18 21 -41 38 -47 34 -127 112 -217 212 -93 104 -102
117 -116 173 l-14 52 39 -44 c22 -24 51 -60 64 -81 30 -45 42 -53 60 -38 12
10 8 19 -27 56 -23 24 -46 40 -51 37 -6 -3 -7 -1 -3 5 4 6 -30 47 -78 96 -63
63 -96 88 -125 96 -33 9 -41 16 -46 41 -8 38 4 49 56 49 35 0 37 2 49 48 7 26
13 50 12 55 -1 4 1 6 6 5 12 -5 62 39 54 47 -4 5 -2 6 3 3 6 -3 30 -2 55 2 25
4 50 8 56 9 6 0 25 -36 42 -81z m233 -259 c32 -10 48 -10 75 0 31 11 38 11 55
-5 36 -32 120 7 213 99 36 35 40 37 49 20 6 -10 15 -21 21 -25 6 -4 7 -8 3 -8
-4 0 -3 -10 4 -21 10 -19 4 -29 -52 -86 -88 -90 -171 -150 -218 -158 -47 -8
-117 10 -148 38 -13 11 -23 17 -23 13 0 -6 -46 33 -95 81 -7 7 -16 9 -20 5 -4
-4 -5 -2 -3 3 1 6 -17 28 -40 51 l-43 41 19 51 c11 28 17 54 13 57 -3 4 29
-27 72 -69 53 -51 90 -79 118 -87z m-601 32 c0 -11 -17 -17 -75 -27 -47 -8
-42 2 12 21 45 17 63 18 63 6z m28 -156 c1 -20 -5 -26 -38 -36 -44 -13 -45
-13 -54 18 -5 17 -1 23 21 31 49 18 68 15 71 -13z"/>
<path d="M2393 3057 c-18 -7 -40 -20 -50 -29 -15 -16 -15 -18 -1 -18 8 0 21 6
27 13 16 20 137 22 181 3 57 -23 72 -69 71 -201 -1 -107 -2 -111 -29 -132 -15
-13 -22 -23 -17 -23 6 0 5 -4 -1 -8 -21 -13 4 -49 50 -72 l45 -23 43 23 c66
34 71 48 32 87 -19 19 -27 38 -29 72 -2 31 0 40 6 26 4 -11 8 -30 8 -42 1 -12
5 -24 10 -27 14 -9 2 96 -19 159 -30 91 58 192 153 176 4 -1 15 -3 25 -4 9 -2
32 -11 51 -21 22 -12 37 -14 43 -8 18 18 -64 52 -137 57 -54 4 -118 -22 -112
-46 3 -10 0 -16 -7 -13 -6 2 -18 -6 -26 -18 -12 -18 -15 -61 -16 -203 -1 -200
0 -199 -67 -172 -39 17 -58 63 -25 63 10 0 18 -8 18 -18 0 -23 16 -32 24 -12
13 33 6 284 -8 319 -19 44 -53 81 -89 94 -36 14 -113 13 -154 -2z"/>
<path d="M2388 2999 c-21 -11 -38 -24 -38 -29 0 -6 17 -1 37 10 50 26 82 25
145 -5 60 -29 58 -28 58 -14 0 5 -4 8 -9 5 -5 -3 -12 1 -15 10 -3 8 -10 12
-16 9 -5 -3 -10 -2 -10 3 0 14 -48 32 -83 32 -18 -1 -49 -10 -69 -21z"/>
<path d="M2825 3007 c-33 -11 -65 -35 -65 -49 0 -5 13 1 30 13 49 37 139 28
189 -19 15 -15 27 -9 16 8 -9 15 -93 54 -120 56 -11 1 -33 -3 -50 -9z"/>
<path d="M2430 2967 c-19 -7 -48 -20 -64 -29 l-29 -15 59 -27 c66 -31 105 -30
155 2 l30 19 -34 26 c-44 34 -74 40 -117 24z m4 -22 c-16 -40 64 -64 88 -26
11 19 38 18 38 -1 0 -12 -63 -38 -92 -38 -13 0 -41 11 -62 24 l-39 24 29 15
c37 20 45 21 38 2z"/>
<path d="M2875 2974 c-5 -1 -22 -5 -37 -8 -54 -12 -23 -70 34 -64 29 3 33 7
36 34 3 30 -10 45 -33 38z"/>
<path d="M2940 2943 l24 -21 -34 -21 c-41 -25 -80 -27 -120 -6 -33 17 -36 24
-17 45 6 8 2 6 -10 -4 -13 -11 -23 -21 -23 -22 0 -2 18 -13 40 -24 49 -25 80
-25 130 0 22 11 46 20 55 20 24 0 18 14 -13 28 -50 24 -57 26 -32 5z"/>
<path d="M2138 2939 c-26 -15 -24 -42 2 -34 19 6 20 3 16 -42 -4 -37 -1 -57
14 -81 11 -18 25 -32 31 -32 7 0 5 8 -5 19 -11 12 -14 21 -7 26 6 3 11 13 11
21 0 8 -5 12 -10 9 -15 -9 -25 25 -12 45 6 10 9 26 7 36 -2 11 -4 23 -4 28 -1
5 -8 3 -16 -4 -13 -11 -14 -10 -9 4 7 19 5 19 -18 5z"/>
<path d="M3140 2886 c0 -14 5 -28 10 -31 6 -3 10 1 10 9 0 9 5 16 10 16 6 0
10 7 10 15 0 8 -9 15 -20 15 -15 0 -20 -7 -20 -24z"/>
<path d="M3118 2790 c-1 -29 1 -54 6 -58 5 -3 6 0 2 6 -3 6 -2 13 4 17 6 4 8
11 5 16 -4 5 -1 9 5 9 15 0 9 52 -7 57 -7 3 -12 -14 -15 -47z"/>
<path d="M2580 2443 c0 -7 8 -16 17 -22 16 -8 15 -12 -10 -35 -32 -29 -24 -35
13 -9 36 25 140 12 162 -21 4 -6 11 -7 15 -2 8 7 -23 39 -50 50 -8 3 -7 8 6
16 19 12 23 30 6 30 -5 0 -8 -4 -5 -9 3 -5 -14 -14 -39 -20 -45 -11 -89 -1
-107 24 -5 6 -8 6 -8 -2z"/>
<path d="M3131 2274 c-25 -11 -31 -18 -23 -26 9 -9 18 -8 37 0 32 15 105 15
141 2 42 -17 39 -5 -6 19 -47 24 -100 26 -149 5z"/>
<path d="M3809 4434 c-30 -19 -69 -73 -69 -96 0 -28 35 -60 64 -60 16 0 32 5
36 12 4 6 10 11 14 10 11 -2 52 34 64 57 21 38 -13 93 -57 93 -14 0 -38 -8
-52 -16z"/>
<path d="M1330 4182 c0 -10 9 -27 19 -36 19 -17 20 -17 31 4 13 24 7 34 -27
45 -18 5 -23 2 -23 -13z"/>
<path d="M4180 3841 c-50 -26 -73 -61 -62 -92 15 -39 51 -53 101 -39 23 6 39
15 36 20 -3 5 0 12 6 16 8 4 9 3 5 -4 -13 -22 13 -12 28 10 22 30 20 60 -4 86
-25 27 -64 28 -110 3z"/>
<path d="M1022 3603 c-9 -3 -4 -12 15 -29 32 -27 48 -31 40 -10 -3 8 -1 17 6
19 7 2 10 7 7 10 -8 9 -54 16 -68 10z"/>
<path d="M4350 3278 c1 -31 15 -37 48 -21 17 8 29 19 26 24 -8 14 -74 11 -74
-3z"/>
<path d="M4408 2752 c-37 -4 -71 -52 -62 -87 5 -22 44 -57 44 -39 0 3 7 1 15
-6 19 -16 93 -5 117 17 21 19 23 62 5 87 -7 10 -28 20 -46 22 -18 2 -36 5 -39
7 -4 1 -19 1 -34 -1z"/>
<path d="M4332 2310 c-28 -27 -28 -52 2 -87 21 -24 26 -26 40 -13 15 11 17 11
14 -1 -2 -10 9 -15 36 -17 70 -6 114 69 66 113 -11 10 -20 14 -20 10 0 -5 -5
-4 -12 3 -20 20 -101 15 -126 -8z"/>
<path d="M900 2299 c-39 -16 -60 -40 -60 -69 0 -40 34 -65 85 -63 95 3 148 72
94 121 -22 21 -73 27 -62 8 3 -6 0 -6 -8 2 -15 14 -16 14 -49 1z"/>
<path d="M918 1972 c-9 -9 -14 -21 -13 -27 2 -5 6 -22 9 -37 6 -25 9 -27 39
-21 17 3 33 7 34 7 1 1 -2 19 -8 39 -12 46 -40 64 -61 39z"/>
<path d="M1010 1695 c-10 -13 -7 -85 4 -85 2 0 17 5 35 11 26 9 30 15 27 36
-9 48 -42 67 -66 38z"/>
<path d="M3635 893 c4 -10 14 -40 23 -66 8 -27 18 -43 22 -37 4 7 11 12 16 13
5 1 19 10 31 21 l22 19 -52 33 c-59 38 -72 41 -62 17z"/>
<path d="M1780 837 c-14 -12 -38 -31 -54 -43 l-28 -20 41 -33 c23 -18 41 -29
40 -25 -2 5 3 27 9 49 11 40 22 95 19 95 -1 0 -13 -11 -27 -23z"/>
<path d="M1970 730 c-6 -11 -8 -26 -4 -32 4 -6 3 -8 -3 -5 -12 8 -22 -12 -16
-30 3 -7 9 -13 14 -13 6 0 7 5 3 12 -4 7 -3 8 5 4 6 -4 9 -11 6 -16 -8 -12 81
-54 99 -47 20 8 40 51 33 70 -5 13 -105 77 -120 77 -4 0 -11 -9 -17 -20z"/>
</g>
</svg>
